<?xml version="1.0" encoding="utf-8"?>
<!-- Generator: Adobe Illustrator 22.1.0, SVG Export Plug-In . SVG Version: 6.00 Build 0)  -->
<svg version="1.1" id="Ebene_1" xmlns="http://www.w3.org/2000/svg" xmlns:xlink="http://www.w3.org/1999/xlink" x="0px" y="0px"
	 viewBox="0 0 141.7 141.7" style="enable-background:new 0 0 141.7 141.7;" xml:space="preserve">
<style type="text/css">
	.st0{fill:none;}
	.st1{fill:#FFFFFF;}
</style>
<g>
	<path class="st0" d="M107.7,106.3c-0.5-0.6-1.2-0.6-1.3-0.6H35.1c-0.9,0-1.6,0.7-1.6,1.6c0,0.6-0.2,4.1,2.5,7
		c2.6,2.7,5.9,2.9,6.5,2.9c18.8,0,37.6,0,56.5,0c0.6,0,4.3-0.1,6.9-3.2c2.4-2.8,2.2-6.1,2.1-6.7C108,107.2,108,106.7,107.7,106.3z"
		/>
	<path class="st0" d="M35.1,77.2h71.3c0.9,0,1.6-0.7,1.6-1.6v-8.3c0-0.9-0.7-1.6-1.6-1.6H35.1c-0.9,0-1.6,0.7-1.6,1.6v8.3
		C33.5,76.5,34.2,77.2,35.1,77.2z"/>
	<path class="st0" d="M35.1,97.2h71.3c0.9,0,1.6-0.7,1.6-1.6v-8.3c0-0.9-0.7-1.6-1.6-1.6H35.1c-0.9,0-1.6,0.7-1.6,1.6v8.3
		C33.5,96.5,34.2,97.2,35.1,97.2z"/>
	<path class="st0" d="M78.5,57.5h27.9c0.9,0,1.6-0.7,1.6-1.6v-8.3c0-0.9-0.7-1.6-1.6-1.6H78.5c-0.9,0-1.6,0.7-1.6,1.6v8.3
		C76.9,56.8,77.6,57.5,78.5,57.5z"/>
	<path class="st0" d="M78.5,37.2h27.9c0.9,0,1.6-0.7,1.6-1.6c0-0.6,0.2-4.6-3-7.5c-2.4-2.3-5.3-2.4-6.1-2.4c-6.8,0-13.6,0-20.4,0
		c-0.9,0-1.6,0.7-1.6,1.6v8.3C76.9,36.5,77.6,37.2,78.5,37.2z"/>
	<path class="st0" d="M49.4,57.5c8.8,0,15.9-7.1,15.9-15.9s-7.1-15.9-15.9-15.9c-8.8,0-15.9,7.1-15.9,15.9S40.6,57.5,49.4,57.5z
		 M46.2,42.8v-2.5v-9.8c0-0.8,0.6-1.4,1.4-1.4H50c0.8,0,1.4,0.6,1.4,1.4v8.4h6.1c0.8,0,1.4,0.6,1.4,1.4v2.5c0,0.8-0.6,1.4-1.4,1.4
		H50h-2.4h0C46.8,44.2,46.2,43.6,46.2,42.8L46.2,42.8z"/>
	<g>
		<g>
			<path class="st1" d="M102.7,19.5h-64c-5.6,0-10.3,4.6-10.3,10.3v83.3c0,5.6,4.6,10.3,10.3,10.3h64c5.6,0,10.3-4.6,10.3-10.3V29.8
				C113,24.2,108.4,19.5,102.7,19.5z M76.9,27.3c0-0.9,0.7-1.6,1.6-1.6c6.8,0,13.6,0,20.4,0c0.8,0,3.7,0.2,6.1,2.4
				c3.2,2.9,3,7,3,7.5c0,0.9-0.7,1.6-1.6,1.6H78.5c-0.9,0-1.6-0.7-1.6-1.6V27.3z M76.9,47.6c0-0.9,0.7-1.6,1.6-1.6h27.9
				c0.9,0,1.6,0.7,1.6,1.6v8.3c0,0.9-0.7,1.6-1.6,1.6H78.5c-0.9,0-1.6-0.7-1.6-1.6V47.6z M49.4,25.6c8.8,0,15.9,7.1,15.9,15.9
				s-7.1,15.9-15.9,15.9c-8.8,0-15.9-7.1-15.9-15.9S40.6,25.6,49.4,25.6z M33.5,67.3c0-0.9,0.7-1.6,1.6-1.6h71.3
				c0.9,0,1.6,0.7,1.6,1.6v8.3c0,0.9-0.7,1.6-1.6,1.6H35.1c-0.9,0-1.6-0.7-1.6-1.6V67.3z M33.5,87.3c0-0.9,0.7-1.6,1.6-1.6h71.3
				c0.9,0,1.6,0.7,1.6,1.6v8.3c0,0.9-0.7,1.6-1.6,1.6H35.1c-0.9,0-1.6-0.7-1.6-1.6V87.3z M105.9,114c-2.6,3.1-6.4,3.2-6.9,3.2
				c-18.8,0-37.6,0-56.5,0c-0.6,0-3.9-0.2-6.5-2.9c-2.7-2.9-2.6-6.4-2.5-7c0-0.9,0.7-1.6,1.6-1.6h71.3c0.1,0,0.9,0,1.3,0.6
				c0.3,0.4,0.3,0.8,0.3,1C108.1,107.9,108.3,111.2,105.9,114z"/>
		</g>
		<g>
			<path class="st1" d="M47.6,44.2L47.6,44.2H50h7.5c0.8,0,1.4-0.6,1.4-1.4v-2.5c0-0.8-0.6-1.4-1.4-1.4h-6.1v-8.4
				c0-0.8-0.6-1.4-1.4-1.4h-2.4c-0.8,0-1.4,0.6-1.4,1.4v9.8v2.5v0C46.2,43.6,46.8,44.2,47.6,44.2z"/>
		</g>
	</g>
</g>
</svg>
