<?xml version="1.0" encoding="utf-8"?>
<!-- Generator: Adobe Illustrator 22.1.0, SVG Export Plug-In . SVG Version: 6.00 Build 0)  -->
<svg version="1.1" id="Ebene_1" xmlns="http://www.w3.org/2000/svg" xmlns:xlink="http://www.w3.org/1999/xlink" x="0px" y="0px"
	 viewBox="0 0 141.7 141.7" style="enable-background:new 0 0 141.7 141.7;" xml:space="preserve">
<style type="text/css">
	.st0{fill:#FFFFFF;}
</style>
<g>
	<g id="XMLID_1_">
		<g>
			<path class="st0" d="M121.2,97.3v4c0,0,0,2.6-2.6,2.6c-0.9,0-2.3,0-3.8,0V90.8c1.5,0,3,0,3.8,0c2.6,0,2.6,2.6,2.6,2.6V97.3z"/>
			<path class="st0" d="M121.2,71.5v4c0,0,0,2.6-2.6,2.6c-0.9,0-2.3,0-3.8,0V65c1.5,0,3,0,3.8,0c2.6,0,2.6,2.6,2.6,2.6V71.5z"/>
			<path class="st0" d="M121.1,45.5v4c0,0,0,2.5-2.6,2.5c-0.8,0-2.2,0-3.7,0V38.9c1.5,0,2.9,0,3.7,0c2.6,0,2.6,2.5,2.6,2.5V45.5z"/>
			<path class="st0" d="M86.7,100.8C86.8,100.8,86.8,100.8,86.7,100.8c1.8-0.2,2.9-1.1,3.6-2.4c0,0,0,0,0,0c0.2-0.3,0.3-0.6,0.5-1
				c1.5-0.9,2.2-2.5,2.3-4.1c1.5-1.8,1.6-4.6,0.3-6.4c1.2-2.8-0.2-6.8-4-7.1c-0.2-0.6-0.6-1.1-1.1-1.6c-0.8-0.8-1.8-1.3-3-1.4
				c-0.8-1-2.1-1.7-3.7-1.7c-0.4,0-0.8,0-1.2,0.1c-0.5-0.2-1.1-0.3-1.8-0.3c-0.1,0-0.3,0-0.4,0c0.8-2,0.4-4.5-1.3-5.9
				c0.2,0,0.3,0,0.5,0c2.5,0,5.3-2.3,5-5c-0.2-1.3-0.4-2.6-0.7-3.8v0c0.5-0.8,0.8-1.7,0.8-2.7c0.2-4-2.4-6.9-5.6-9
				c-0.6-0.7-1.4-1.2-2.4-1.4c-0.3-0.1-0.6-0.3-0.9-0.5c-0.9-0.4-1.9-0.7-2.9-0.6c-0.5-0.2-1-0.3-1.7-0.3c-0.9,0-1.6,0.2-2.3,0.5
				c0,0-0.1,0-0.1,0c-0.7,0-1.3,0.1-1.8,0.3c-0.4-0.1-0.8-0.1-1.2-0.1c-3.4,0-5,2.8-4.8,5.5c-1.5,0.9-2.6,2.4-3,4.3
				c-0.4,2,0.3,4.1,1.8,5.3c-0.7,2-0.2,4.4,1.4,5.8c-0.9,0.7-1.6,1.6-2,2.7c-0.6,1.6-1.1,3.2-1.4,4.9c-0.2,0-0.4,0-0.6,0
				c-0.9,0-1.7,0.2-2.4,0.6c-0.3,0-0.5-0.1-0.8-0.1c-2.9,0-4.5,2-4.8,4.3c-1.7,1.3-2.3,3.7-1.6,5.8c-0.6,1.1-0.7,2.5-0.4,3.8
				c-0.2,0.6-0.3,1.2-0.3,1.7c0,0.6,0.1,1.2,0.3,1.8c0.1,2.2,1.5,4.3,4,4.6c0.8,0.7,1.8,1.1,3.1,1.1c1.2,0,2.1-0.3,2.9-0.9
				c3.5,1,7.1,1.6,10.6,2.2c2.4,0.4,4.8-0.5,5.8-2.7c0.8,1.8,2.6,3.1,4.6,3.2c2.7,0.2,5.4,0.4,8.1,0.5h0C85.3,101,86,101,86.7,100.8
				z M111.8,29.8v83.3c0,5.7-4.6,10.3-10.3,10.3h-64c-5.6,0-10.3-4.6-10.3-10.3V29.8c0-5.6,4.6-10.3,10.3-10.3h64
				C107.2,19.5,111.8,24.1,111.8,29.8z"/>
		</g>
		<g>
		</g>
	</g>
</g>
<g>
	<g>
		<path class="st0" d="M69.5,47C75.9,47,81,52.1,81,58.4s-5.1,11.5-11.5,11.5c-6.3,0-11.5-5.1-11.5-11.5S63.2,47,69.5,47 M69.5,40
			c-10.2,0-18.5,8.3-18.5,18.5s8.3,18.5,18.5,18.5c10.2,0,18.5-8.3,18.5-18.5S79.7,40,69.5,40L69.5,40z"/>
	</g>
	<g>
		<path class="st0" d="M78.2,76.5c0,0,14,0.3,14.1,11.5v4c0,0,0.3,3.7-4.6,3.8H69.6h0H51.4c-4.8-0.1-4.6-3.8-4.6-3.8v-4
			c0.1-11.3,14.1-11.5,14.1-11.5c1.6,2.2,6.7,2.4,8.2,2.4c0.3,0,0.4,0,0.5,0v0c0,0,0,0,0,0c0,0,0,0,0,0v0c0,0,0.2,0,0.5,0
			C71.6,79,76.6,78.8,78.2,76.5 M74.7,69.5l-1.6,2.2c-0.2,0.1-0.6,0.1-0.9,0.2l0,0l-2.9,0.2l0,0c0,0-0.1,0-0.2,0
			c-1.3,0-2.5-0.2-3.1-0.3l-1.6-2.2l-3.7,0.1c-8.4,0.1-20.9,5.2-21,18.5l0,0v0V92c0,1.3,0.2,4.5,2.7,7.2c1.5,1.6,4.2,3.5,8.7,3.7
			l0.1,0h0.1h18.2h18.2h0.1l0.1,0c4.5-0.1,7.2-2.1,8.7-3.7c2.5-2.7,2.7-5.9,2.7-7.2v-3.9v0l0,0c-0.1-13.3-12.6-18.3-21-18.5
			L74.7,69.5L74.7,69.5z"/>
	</g>
</g>
</svg>
